<svg xmlns="http://www.w3.org/2000/svg" width="47" height="53"><path fill-rule="evenodd" fill="#FFF" d="M46.189 39.503c-1.367 2.348-4.18 3.551-8.063 3.551-1.536 0-3.25-.2-5.097-.579-2.126 6.726-5.531 10.535-9.529 10.535-3.996 0-7.401-3.809-9.527-10.532-1.897.396-3.639.584-5.193.584-3.846 0-6.588-1.186-7.967-3.557-1.926-3.319-.39-7.986 4.195-13.006-4.583-5.02-6.121-9.686-4.196-13.004 1.906-3.277 6.642-4.31 13.158-2.969C16.098 3.799 19.502-.011 23.5-.011c3.998 0 7.403 3.81 9.529 10.537 2.057-.429 3.924-.624 5.578-.589 3.643.076 6.251 1.269 7.58 3.557 1.926 3.317.39 7.985-4.195 13.005 4.584 5.018 6.121 9.685 4.197 13.004zm-28.001-.598c1.649 6.653 4.134 9.133 5.312 9.133 1.036 0 3.08-1.916 4.68-6.896a55.467 55.467 0 01-5.762-2.329 62.923 62.923 0 01-4.676-2.435l-.071-.041c.161.868.313 1.744.517 2.568zM5.185 37.034c.472.813 2.928 1.554 7.616.61-.38-1.967-.693-3.991-.861-6.12a63.825 63.825 0 01-.186-4.606c-.52.453-1.025.907-1.497 1.36-4.749 4.565-5.631 7.791-5.072 8.756zm9.873-21.141c-6.173-1.714-9.33-.866-9.876.073-.485.837.128 3.398 3.434 7.062a55.935 55.935 0 014.379-3.394 64.262 64.262 0 014.606-2.93 40.76 40.76 0 00-2.543-.811zm13.755-1.8c-1.649-6.654-4.134-9.134-5.313-9.134-1.036 0-3.08 1.918-4.68 6.898a55.07 55.07 0 015.762 2.329 63.687 63.687 0 014.677 2.432l.07.043c-.16-.868-.313-1.745-.516-2.568zm1.27 8.924a60.027 60.027 0 00-3.358-2.103 60.326 60.326 0 00-3.225-1.705 60.294 60.294 0 00-3.224 1.705 59.138 59.138 0 00-3.359 2.104c-.067 1.151-.134 2.305-.134 3.481 0 1.177.067 2.332.134 3.482a59.068 59.068 0 003.359 2.101c1.041.6 2.126 1.165 3.224 1.707a56.918 56.918 0 003.225-1.706 60.004 60.004 0 003.358-2.102c.068-1.151.135-2.305.135-3.482 0-1.176-.067-2.33-.135-3.482zm-.681 13.277c.862.303 1.712.581 2.54.811 6.17 1.712 9.329.862 9.877-.071.485-.84-.13-3.401-3.433-7.064a56.64 56.64 0 01-4.38 3.395 64.083 64.083 0 01-4.604 2.929zm12.413-20.33c-.475-.813-2.929-1.555-7.616-.611.381 1.967.694 3.993.861 6.121.118 1.501.177 3.05.187 4.605.52-.452 1.025-.906 1.497-1.36 4.749-4.563 5.63-7.791 5.071-8.755zM23.5 29.813c-1.854 0-3.359-1.485-3.359-3.314 0-1.831 1.505-3.315 3.359-3.315s3.359 1.484 3.359 3.315c0 1.829-1.505 3.314-3.359 3.314z"/></svg>