<svg xmlns="http://www.w3.org/2000/svg" width="32" height="32"><path fill-rule="evenodd" fill="#17DAA3" d="M28.913 16.472c-1.503 2.308-3.607 4.224-5.959 5.772a12.518 12.518 0 01-5.208 9.429 1.508 1.508 0 01-1.444.165 1.502 1.502 0 01-.906-1.137c-.228-1.347-.833-2.841-1.724-4.349-.998.272-1.968.494-2.875.651a1.5 1.5 0 01-1.318-.417l-4.068-4.068a1.5 1.5 0 01-.418-1.318 31.77 31.77 0 01.651-2.874c-1.507-.89-3-1.495-4.348-1.723a1.499 1.499 0 01-.971-2.35 12.524 12.524 0 019.428-5.21c1.547-2.351 3.464-4.456 5.772-5.959C19.903.234 25.107-.002 30.5-.002A1.5 1.5 0 0132 1.497c0 5.179-.238 10.6-3.087 14.975zM17.466 28.66a10.004 10.004 0 002.743-4.83 33.494 33.494 0 01-4.09 1.755c.572 1.035 1.031 2.068 1.347 3.075zM3.338 14.533c1.006.316 2.038.775 3.074 1.346a33.552 33.552 0 011.754-4.09 10.009 10.009 0 00-4.828 2.744zm13.823-8.935c-4.774 3.109-7.938 9.813-9.069 15.359l2.948 2.948c5.546-1.132 12.25-4.295 15.359-9.07 2.156-3.31 2.537-7.455 2.593-11.829-4.375.056-8.519.437-11.831 2.592zm4.339 7.4a2.5 2.5 0 110-5 2.5 2.5 0 010 5zM2.107 26.772a2.5 2.5 0 113.119 3.119l-3.581 1.086a.5.5 0 01-.624-.624l1.086-3.581z"/></svg>