<svg xmlns="http://www.w3.org/2000/svg" width="19" height="18"><path fill-rule="evenodd" fill="#FFF" d="M18.851 5.206l-3.257 7.313c-.258.579-.824.98-1.48.98H3.8c-.899 0-1.629-.755-1.629-1.687V3.443L.239 1.44A.856.856 0 010 .843C0 .377.364 0 .814 0c.225 0 .429.094.576.247l2.476 2.565h13.505c.9 0 1.629.755 1.629 1.688 0 .252-.053.491-.149.706zM3.8 11.812h10.314l2.005-4.5H3.8v4.5zM17.371 4.5H3.8v1.125h13.071l.502-1.126-.002.001zM4.343 14.625c.899 0 1.628.755 1.628 1.687 0 .933-.729 1.688-1.628 1.688-.899 0-1.629-.755-1.629-1.688 0-.932.73-1.687 1.629-1.687zm8.686 0c.899 0 1.628.755 1.628 1.687 0 .933-.729 1.688-1.628 1.688-.899 0-1.629-.755-1.629-1.688 0-.932.73-1.687 1.629-1.687z"/></svg>