<svg xmlns="http://www.w3.org/2000/svg" width="53" height="53"><path fill-rule="evenodd" fill="#87949E" d="M47.879 27.323c-2.493 3.83-5.983 7.008-9.884 9.576-.377 6.21-3.523 11.99-8.64 15.64a2.49 2.49 0 01-2.395.274 2.49 2.49 0 01-1.503-1.886c-.378-2.235-1.381-4.712-2.859-7.215-1.657.453-3.265.82-4.77 1.081a2.483 2.483 0 01-2.185-.692l-6.75-6.749a2.488 2.488 0 01-.693-2.185A52.34 52.34 0 019.281 30.4c-2.5-1.477-4.977-2.481-7.213-2.858a2.49 2.49 0 01-1.611-3.899c3.65-5.117 9.431-8.263 15.639-8.642 2.567-3.901 5.746-7.392 9.575-9.885C32.934.387 41.565-.004 50.512-.004A2.488 2.488 0 0153 2.483c0 8.591-.395 17.583-5.121 24.84zM28.89 47.542a16.6 16.6 0 004.552-8.012 55.804 55.804 0 01-6.786 2.911c.949 1.717 1.71 3.43 2.234 5.101zM5.455 24.108c1.668.523 3.381 1.285 5.098 2.232a55.846 55.846 0 012.911-6.784 16.59 16.59 0 00-8.009 4.552zM28.386 9.285c-7.92 5.158-13.168 16.279-15.045 25.479l4.891 4.889c9.199-1.875 20.32-7.123 25.478-15.045 3.575-5.491 4.207-12.366 4.3-19.622-7.257.093-14.132.724-19.624 4.299zm7.196 12.276a4.147 4.147 0 110-8.294 4.147 4.147 0 010 8.294zM3.413 44.409a4.147 4.147 0 115.175 5.174l-5.941 1.802a.828.828 0 01-1.035-1.036l1.801-5.94z"/></svg>